nColumns=19
nRows=153
DataType=double
version=3
OpenSimVersion=4.1
endheader
time	ground_force_calcn_r_vx	ground_force_calcn_r_vy	ground_force_calcn_r_vz	ground_force_calcn_r_px	ground_force_calcn_r_py	ground_force_calcn_r_pz	ground_force_calcn_r_mx	ground_force_calcn_r_my	ground_force_calcn_r_mz	ground_force_calcn_l_vx	ground_force_calcn_l_vy	ground_force_calcn_l_vz	ground_force_calcn_l_px	ground_force_calcn_l_py	ground_force_calcn_l_pz	ground_force_calcn_l_mx	ground_force_calcn_l_my	ground_force_calcn_l_mz
1.83	0	0	0	0	0	0	0	0	0	0	0	0	0	0	0	0	0	0
1.84	0	0	0	0	0	0	0	0	0	0	0	0	0	0	0	0	0	0
1.85	0	0	0	0	0	0	0	0	0	0	0	0	0	0	0	0	0	0
1.86	0	0	0	0	0	0	0	0	0	0	0	0	0	0	0	0	0	0
1.87	0	0	0	0	0	0	0	0	0	0	0	0	0	0	0	0	0	0
1.88	0	0	0	0	0	0	0	0	0	0	0	0	0	0	0	0	0	0
1.89	0	0	0	0	0	0	0	0	0	0	0	0	0	0	0	0	0	0
1.9	0	0	0	0	0	0	0	0	0	0	0	0	0	0	0	0	0	0
1.91	0	0	0	0	0	0	0	0	0	0	0	0	0	0	0	0	0	0
1.92	0	0	0	0	0	0	0	0	0	0	0	0	0	0	0	0	0	0
1.93	0	0	0	0	0	0	0	0	0	-7.84054	12.5765	-3.11169	0.908223	0	-0.568587	-2.46068	3.94702	-0.976577
1.94	0	0	0	0	0	0	0	0	0	-25.217	52.6031	-3.65596	0.902855	0	-0.470695	-1.7259	3.60025	-0.250221
1.95	0	0	0	0	0	0	0	0	0	-77.6143	193.99	3.74495	0.911795	0	-0.444601	-0.423918	1.05954	0.0204544
1.96	0	0	0	0	0	0	0	0	0	-172.91	513.924	27.853	0.914203	0	-0.429546	1.0232	-3.04117	-0.164821
1.97	0	0	0	0	0	0	0	0	0	-258.801	979.823	64.2528	0.900591	0	-0.416664	2.00454	-7.58921	-0.497669
1.98	0	0	0	0	0	0	0	0	0	-291.525	1470.82	85.4585	0.869856	0	-0.407113	2.19811	-11.0901	-0.64436
1.99	0	0	0	0	0	0	0	0	0	-299.918	1874.29	68.0926	0.832208	0	-0.402448	1.99481	-12.4663	-0.452897
2	0	0	0	0	0	0	0	0	0	-288.804	2133.33	27.9736	0.793897	0	-0.400967	1.61981	-11.9652	-0.156895
2.01	0	0	0	0	0	0	0	0	0	-248.587	2288	3.12861	0.755181	0	-0.399606	1.1624	-10.6987	-0.0146294
2.02	0	0	0	0	0	0	0	0	0	-178.614	2378.16	7.20877	0.716516	0	-0.397981	0.72553	-9.66009	-0.029282
2.03	0	0	0	0	0	0	0	0	0	-84.5669	2386.12	21.4068	0.676939	0	-0.397872	0.322505	-9.0997	-0.0816369
2.04	0	0	0	0	0	0	0	0	0	25.6505	2289.66	27.3875	0.634489	0	-0.39936	-0.0961516	-8.58284	-0.102663
2.05	0	0	0	0	0	0	0	0	0	143.463	2092.32	25.7765	0.589512	0	-0.400517	-0.510497	-7.44527	-0.0917224
2.06	0	0	0	0	0	0	0	0	0	244.081	1807.46	21.6659	0.545121	0	-0.400085	-0.712626	-5.27711	-0.0632562
2.07	0	0	0	0	0	0	0	0	0	301.071	1450.2	12.5536	0.504057	0	-0.398654	-0.46242	-2.22738	-0.0192813
2.08	0	0	0	0	0	0	0	0	0	302.423	1044.9	-3.04558	0.465161	0	-0.398054	0.287643	0.993831	-0.00289674
2.09	0	0	0	0	0	0	0	0	0	255.147	646.655	-17.4935	0.421626	0	-0.39954	1.33942	3.39468	-0.0918341
2.1	0	0	0	0	0	0	0	0	0	176.307	333.741	-21.6536	0.374619	0	-0.4007	2.24767	4.25473	-0.276054
2.11	0	0	0	0	0	0	0	0	0	90.7863	145.768	-15.1875	0.372506	0	-0.389742	2.43428	3.90851	-0.407227
2.12	0	0	0	0	0	0	0	0	0	29.4204	54.566	-6.05865	0.482797	0	-0.348781	1.80233	3.34279	-0.371161
2.13	0	0	0	0	0	0	0	0	0	5.96849	18.4651	-1.67932	0.650263	0	-0.266345	0.830199	2.56843	-0.233588
2.14	0	0	0	0	0	0	0	0	0	0	0	0	0	0	0	0	0	0
2.15	0	0	0	0	0	0	0	0	0	0	0	0	0	0	0	0	0	0
2.16	0	0	0	0	0	0	0	0	0	0	0	0	0	0	0	0	0	0
2.17	0	0	0	0	0	0	0	0	0	0	0	0	0	0	0	0	0	0
2.18	0	0	0	0	0	0	0	0	0	0	0	0	0	0	0	0	0	0
2.19	0	0	0	0	0	0	0	0	0	0	0	0	0	0	0	0	0	0
2.2	0	0	0	0	0	0	0	0	0	0	0	0	0	0	0	0	0	0
2.21	0	0	0	0	0	0	0	0	0	0	0	0	0	0	0	0	0	0
2.22	0	0	0	0	0	0	0	0	0	0	0	0	0	0	0	0	0	0
2.23	-5.47631	12.1029	-3.6086	0.954578	0	-0.236146	-0.116698	0.257907	-0.0768975	0	0	0	0	0	0	0	0	0
2.24	-18.17	52.1481	-9.7544	0.915194	0	-0.272663	-0.350221	1.00514	-0.188013	0	0	0	0	0	0	0	0	0
2.25	-60.8501	186.985	-19.575	0.924789	0	-0.275972	-0.603648	1.85494	-0.194189	0	0	0	0	0	0	0	0	0
2.26	-134.743	473.654	-30.1104	0.927073	0	-0.277858	-0.654566	2.30095	-0.146272	0	0	0	0	0	0	0	0	0
2.27	-191.285	871.901	-33.7209	0.906893	0	-0.282858	-0.409434	1.86625	-0.0721773	0	0	0	0	0	0	0	0	0
2.28	-201.606	1287.29	-21.7611	0.866885	0	-0.290367	-0.0657876	0.420067	-0.00710105	0	0	0	0	0	0	0	0	0
2.29	-208.016	1647.48	5.98702	0.824876	0	-0.296778	0.183379	-1.45236	-0.00527793	0	0	0	0	0	0	0	0	0
2.3	-221.654	1910.42	33.4143	0.788005	0	-0.300262	0.309264	-2.66553	-0.0466215	0	0	0	0	0	0	0	0	0
2.31	-204.7	2094.29	39.1336	0.750986	0	-0.301808	0.224765	-2.29958	-0.0429695	0	0	0	0	0	0	0	0	0
2.32	-141.292	2232.37	20.8848	0.71244	0	-0.301931	0.00784616	-0.123967	-0.00115976	0	0	0	0	0	0	0	0	0
2.33	-61.4075	2316.96	-3.42547	0.675744	0	-0.300296	-0.0858311	3.23848	-0.00478788	0	0	0	0	0	0	0	0	0
2.34	11.1747	2319.3	-19.8697	0.641292	0	-0.297749	0.0319762	6.63665	-0.0568571	0	0	0	0	0	0	0	0	0
2.35	82.6606	2226.16	-27.2387	0.606101	0	-0.29589	0.33405	8.9964	-0.110077	0	0	0	0	0	0	0	0	0
2.36	153.476	2041.58	-24.924	0.568717	0	-0.294913	0.732441	9.74316	-0.118946	0	0	0	0	0	0	0	0	0
2.37	223.287	1770.59	-12.0282	0.528236	0	-0.293819	1.12753	8.9409	-0.0607385	0	0	0	0	0	0	0	0	0
2.38	282.862	1422.91	3.54205	0.484322	0	-0.292231	1.42216	7.15404	0.0178085	0	0	0	0	0	0	0	0	0
2.39	298.886	1036.14	10.7541	0.43987	0	-0.290394	1.48482	5.14739	0.0534244	0	0	0	0	0	0	0	0	0
2.4	254.819	664.921	8.2929	0.393973	0	-0.288759	1.33745	3.48991	0.0435262	0	0	0	0	0	0	0	0	0
2.41	172.128	365.659	3.62506	0.349994	0	-0.286182	1.1077	2.35314	0.0233284	0	0	0	0	0	0	0	0	0
2.42	84.9266	170.98	2.47951	0.349332	0	-0.277707	0.84506	1.70133	0.0246723	0	0	0	0	0	0	0	0	0
2.43	25.3658	65.7391	3.7382	0.429745	0	-0.252997	0.54128	1.40281	0.0797695	0	0	0	0	0	0	0	0	0
2.44	2.05472	20.1896	3.55877	0.631886	0	-0.193563	0.121968	1.19845	0.211248	0	0	0	0	0	0	0	0	0
2.45	0	0	0	0	0	0	0	0	0	0	0	0	0	0	0	0	0	0
2.46	0	0	0	0	0	0	0	0	0	0	0	0	0	0	0	0	0	0
2.47	0	0	0	0	0	0	0	0	0	0	0	0	0	0	0	0	0	0
2.48	0	0	0	0	0	0	0	0	0	0	0	0	0	0	0	0	0	0
2.49	0	0	0	0	0	0	0	0	0	0	0	0	0	0	0	0	0	0
2.5	0	0	0	0	0	0	0	0	0	0	0	0	0	0	0	0	0	0
2.51	0	0	0	0	0	0	0	0	0	0	0	0	0	0	0	0	0	0
2.52	0	0	0	0	0	0	0	0	0	0	0	0	0	0	0	0	0	0
2.53	0	0	0	0	0	0	0	0	0	0	0	0	0	0	0	0	0	0
2.54	0	0	0	0	0	0	0	0	0	0	0	0	0	0	0	0	0	0
2.55	0	0	0	0	0	0	0	0	0	-8.70341	13.5398	-2.17214	0.998981	0	-0.544798	-3.09505	4.81494	-0.772445
2.56	0	0	0	0	0	0	0	0	0	-24.8922	51.6029	-2.22001	0.916905	0	-0.463238	-2.35998	4.89238	-0.210476
2.57	0	0	0	0	0	0	0	0	0	-71.7401	187.064	5.73651	0.89794	0	-0.438468	-0.976698	2.54676	0.0780991
2.58	0	0	0	0	0	0	0	0	0	-155.201	492.121	30.6224	0.897486	0	-0.423611	0.564175	-1.78892	-0.111316
2.59	0	0	0	0	0	0	0	0	0	-227.503	930.224	68.4214	0.883757	0	-0.410399	1.68583	-6.8931	-0.507013
2.6	0	0	0	0	0	0	0	0	0	-260.777	1387.27	91.636	0.853146	0	-0.400327	2.08558	-11.0948	-0.732864
2.61	0	0	0	0	0	0	0	0	0	-283.611	1782.01	75.7333	0.815477	0	-0.394846	2.08647	-13.1099	-0.557156
2.62	0	0	0	0	0	0	0	0	0	-282.134	2082.95	34.5962	0.776718	0	-0.391886	1.75748	-12.9752	-0.215507
2.63	0	0	0	0	0	0	0	0	0	-239.282	2306.97	5.12189	0.73766	0	-0.388924	1.21133	-11.6787	-0.0259289
2.64	0	0	0	0	0	0	0	0	0	-165.184	2456.56	2.66855	0.699729	0	-0.38631	0.691412	-10.2824	-0.0111697
2.65	0	0	0	0	0	0	0	0	0	-76.9131	2501.27	12.4631	0.662703	0	-0.38563	0.285059	-9.27032	-0.0461915
2.66	0	0	0	0	0	0	0	0	0	10.799	2425.64	18.4015	0.625154	0	-0.386535	-0.0375928	-8.444	-0.0640582
2.67	0	0	0	0	0	0	0	0	0	102.339	2240.17	19.3065	0.585381	0	-0.387154	-0.331565	-7.25783	-0.0625502
2.68	0	0	0	0	0	0	0	0	0	203.368	1958.41	17.5398	0.541732	0	-0.386623	-0.545941	-5.25736	-0.0470858
2.69	0	0	0	0	0	0	0	0	0	285.865	1601.06	10.8145	0.496486	0	-0.385678	-0.43801	-2.45319	-0.0165702
2.7	0	0	0	0	0	0	0	0	0	309.894	1199	-0.0608107	0.453484	0	-0.38568	0.146992	0.568721	-2.88442e-05
2.71	0	0	0	0	0	0	0	0	0	273.933	794.309	-7.96877	0.410927	0	-0.386865	1.0265	2.97649	-0.0298611
2.72	0	0	0	0	0	0	0	0	0	196.912	450.131	-8.52262	0.373045	0	-0.386428	1.82587	4.17385	-0.0790262
2.73	0	0	0	0	0	0	0	0	0	105.827	212.235	-4.76628	0.36294	0	-0.38006	2.11704	4.24568	-0.0953475
2.74	0	0	0	0	0	0	0	0	0	38.244	78.7514	-1.6109	0.397168	0	-0.364583	1.79406	3.6943	-0.075569
2.75	0	0	0	0	0	0	0	0	0	10.0728	24.2246	-0.497869	0.507382	0	-0.318258	1.16619	2.80464	-0.0576413
2.76	0	0	0	0	0	0	0	0	0	0	0	0	0	0	0	0	0	0
2.77	0	0	0	0	0	0	0	0	0	0	0	0	0	0	0	0	0	0
2.78	0	0	0	0	0	0	0	0	0	0	0	0	0	0	0	0	0	0
2.79	0	0	0	0	0	0	0	0	0	0	0	0	0	0	0	0	0	0
2.8	0	0	0	0	0	0	0	0	0	0	0	0	0	0	0	0	0	0
2.81	0	0	0	0	0	0	0	0	0	0	0	0	0	0	0	0	0	0
2.82	0	0	0	0	0	0	0	0	0	0	0	0	0	0	0	0	0	0
2.83	0	0	0	0	0	0	0	0	0	0	0	0	0	0	0	0	0	0
2.84	0	0	0	0	0	0	0	0	0	0	0	0	0	0	0	0	0	0
2.85	0	0	0	0	0	0	0	0	0	0	0	0	0	0	0	0	0	0
2.86	0	0	0	0	0	0	0	0	0	0	0	0	0	0	0	0	0	0
2.87	-15.6587	38.3543	-7.7735	0.850632	0	-0.197447	0.478048	-1.17093	0.237319	0	0	0	0	0	0	0	0	0
2.88	-57.3919	142.147	-19.788	0.911324	0	-0.225232	0.0212315	-0.0525857	0.00732034	0	0	0	0	0	0	0	0	0
2.89	-142.649	395.75	-39.0181	0.920136	0	-0.233054	-0.4971	1.3791	-0.135969	0	0	0	0	0	0	0	0	0
2.9	-228.186	795.516	-60.0712	0.901156	0	-0.238769	-0.739921	2.57956	-0.194788	0	0	0	0	0	0	0	0	0
2.91	-255.397	1245.48	-70.6232	0.863999	0	-0.245682	-0.603133	2.94128	-0.166781	0	0	0	0	0	0	0	0	0
2.92	-256.477	1653.59	-60.9592	0.82262	0	-0.252289	-0.352069	2.2699	-0.0836795	0	0	0	0	0	0	0	0	0
2.93	-269.575	1945.33	-38.3727	0.786073	0	-0.25645	-0.161397	1.16469	-0.0229741	0	0	0	0	0	0	0	0	0
2.94	-263.922	2121.1	-26.3794	0.750592	0	-0.25831	-0.0761106	0.611687	-0.00760735	0	0	0	0	0	0	0	0	0
2.95	-207.473	2226.21	-39.0539	0.711732	0	-0.258646	-0.121106	1.29948	-0.0227965	0	0	0	0	0	0	0	0	0
2.96	-115.889	2271.83	-64.4342	0.670774	0	-0.257333	-0.163255	3.20037	-0.0907695	0	0	0	0	0	0	0	0	0
2.97	-12.6712	2244.78	-83.1786	0.629354	0	-0.254722	-0.0317076	5.6172	-0.208141	0	0	0	0	0	0	0	0	0
2.98	100.467	2139.16	-89.5025	0.586507	0	-0.252184	0.35794	7.62133	-0.318876	0	0	0	0	0	0	0	0	0
2.99	208.761	1957.79	-85.6839	0.543007	0	-0.250528	0.907211	8.50793	-0.372355	0	0	0	0	0	0	0	0	0
3	290.561	1704.25	-72.6831	0.500978	0	-0.249146	1.37506	8.06528	-0.343968	0	0	0	0	0	0	0	0	0
3.01	335.842	1383.65	-54.1406	0.459984	0	-0.247476	1.59069	6.55354	-0.256433	0	0	0	0	0	0	0	0	0
3.02	335.662	1016.62	-37.4294	0.415497	0	-0.245723	1.4853	4.49854	-0.165625	0	0	0	0	0	0	0	0	0
3.03	285.994	656.666	-25.8633	0.364425	0	-0.244197	1.07318	2.46411	-0.0970511	0	0	0	0	0	0	0	0	0
3.04	197.045	370.652	-16.0324	0.326146	0	-0.242642	0.472254	0.888334	-0.0384245	0	0	0	0	0	0	0	0	0
3.05	100.454	183.327	-5.11871	0.350493	0	-0.237179	-0.0569609	-0.103952	0.00290247	0	0	0	0	0	0	0	0	0
3.06	34.077	76.6669	3.12387	0.460899	0	-0.218555	-0.27977	-0.629429	-0.0256468	0	0	0	0	0	0	0	0	0
3.07	7.76857	25.1113	4.1953	0.620687	0	-0.185398	-0.208097	-0.672659	-0.11238	0	0	0	0	0	0	0	0	0
3.08	0	0	0	0	0	0	0	0	0	0	0	0	0	0	0	0	0	0
3.09	0	0	0	0	0	0	0	0	0	0	0	0	0	0	0	0	0	0
3.1	0	0	0	0	0	0	0	0	0	0	0	0	0	0	0	0	0	0
3.11	0	0	0	0	0	0	0	0	0	0	0	0	0	0	0	0	0	0
3.12	0	0	0	0	0	0	0	0	0	0	0	0	0	0	0	0	0	0
3.13	0	0	0	0	0	0	0	0	0	0	0	0	0	0	0	0	0	0
3.14	0	0	0	0	0	0	0	0	0	0	0	0	0	0	0	0	0	0
3.15	0	0	0	0	0	0	0	0	0	0	0	0	0	0	0	0	0	0
3.16	0	0	0	0	0	0	0	0	0	0	0	0	0	0	0	0	0	0
3.17	0	0	0	0	0	0	0	0	0	0	0	0	0	0	0	0	0	0
3.18	0	0	0	0	0	0	0	0	0	-15.4804	32.516	-1.93109	0.831725	0	-0.514116	-2.94203	6.17963	-0.367001
3.19	0	0	0	0	0	0	0	0	0	-50.6504	131.466	4.05713	0.851197	0	-0.465926	-1.82333	4.73257	0.14605
3.2	0	0	0	0	0	0	0	0	0	-125.537	395.743	27.4475	0.864027	0	-0.446963	-0.288757	0.910278	0.0631341
3.21	0	0	0	0	0	0	0	0	0	-198.305	837.588	71.6497	0.858066	0	-0.431713	1.04566	-4.41659	-0.377808
3.22	0	0	0	0	0	0	0	0	0	-224.868	1329.18	113.316	0.834397	0	-0.419326	1.638	-9.6821	-0.825418
3.23	0	0	0	0	0	0	0	0	0	-238.62	1740.56	117.63	0.800638	0	-0.413044	1.82395	-13.3044	-0.899131
3.24	0	0	0	0	0	0	0	0	0	-245.7	2020.59	87.5374	0.764522	0	-0.412452	1.8116	-14.8983	-0.645433
3.25	0	0	0	0	0	0	0	0	0	-224.615	2206.93	66.9521	0.728255	0	-0.412534	1.54407	-15.1711	-0.46025
3.26	0	0	0	0	0	0	0	0	0	-175.718	2335.77	81.0481	0.692659	0	-0.411161	1.12762	-14.9892	-0.520105
3.27	0	0	0	0	0	0	0	0	0	-97.4344	2384.35	106.388	0.655164	0	-0.410998	0.59826	-14.6402	-0.653238
3.28	0	0	0	0	0	0	0	0	0	9.1226	2331.55	113.245	0.612643	0	-0.413287	-0.0539902	-13.7988	-0.670216
3.29	0	0	0	0	0	0	0	0	0	126.292	2188.98	104.291	0.566757	0	-0.415439	-0.690082	-11.961	-0.569863
3.3	0	0	0	0	0	0	0	0	0	228.843	1971.59	94.4285	0.522618	0	-0.414836	-1.02969	-8.87131	-0.424888
3.31	0	0	0	0	0	0	0	0	0	300.658	1682.35	81.7516	0.481909	0	-0.41227	-0.842884	-4.7164	-0.229188
3.32	0	0	0	0	0	0	0	0	0	326.821	1323.77	58.1625	0.442105	0	-0.410703	-0.0427374	-0.173106	-0.00760573
3.33	0	0	0	0	0	0	0	0	0	302.149	927.704	29.5357	0.399021	0	-0.411307	1.21251	3.72283	0.118525
3.34	0	0	0	0	0	0	0	0	0	235.116	560.651	9.43396	0.350264	0	-0.411876	2.51354	5.99372	0.100855
3.35	0	0	0	0	0	0	0	0	0	143.493	286.948	2.06803	0.313862	0	-0.406374	3.22195	6.44303	0.0464349
